<svg width="35" height="26" viewBox="0 0 35 26" fill="none" xmlns="http://www.w3.org/2000/svg">
<path d="M17.3701 17.021C22.8028 17.021 27.4416 17.8823 27.4416 21.3288C27.4416 24.7739 22.8326 25.6666 17.3701 25.6666C11.9374 25.6666 7.29865 24.8053 7.29865 21.3602C7.29865 17.9136 11.9077 17.021 17.3701 17.021ZM26.0564 14.9456C28.1333 14.9071 30.3662 15.1923 31.1914 15.3948C32.9394 15.7385 34.0892 16.44 34.5655 17.4596C34.9682 18.2966 34.9682 19.2677 34.5655 20.1033C33.8368 21.6847 31.4877 22.1924 30.5747 22.3236C30.3861 22.3521 30.2344 22.1881 30.2542 21.9984C30.7207 17.6165 27.0105 15.5388 26.0507 15.0611C26.0096 15.0398 26.0011 15.007 26.0053 14.987C26.0082 14.9727 26.0252 14.9499 26.0564 14.9456ZM8.45527 14.9427L8.84638 14.9462C8.87757 14.9505 8.89316 14.9733 8.896 14.9861C8.90025 15.0075 8.89175 15.0389 8.85205 15.0617C7.89083 15.5394 4.18066 17.617 4.64709 21.9976C4.66694 22.1887 4.51666 22.3512 4.3281 22.3241C3.41509 22.1929 1.06593 21.6853 0.337218 20.1039C-0.0668329 19.2669 -0.0668329 18.2972 0.337218 17.4602C0.813572 16.4406 1.96193 15.739 3.70998 15.394C4.53651 15.1929 6.768 14.9077 8.84638 14.9462L8.45527 14.9427ZM17.3701 0.333252C21.069 0.333252 24.0348 3.31351 24.0348 7.03527C24.0348 10.7556 21.069 13.7387 17.3701 13.7387C13.6713 13.7387 10.7054 10.7556 10.7054 7.03527C10.7054 3.31351 13.6713 0.333252 17.3701 0.333252ZM26.4179 1.45092C29.9906 1.45092 32.7962 4.83187 31.8407 8.59783C31.1956 11.1332 28.8606 12.8173 26.2591 12.7488C25.9982 12.7417 25.7416 12.7174 25.4935 12.6747C25.3135 12.6433 25.2228 12.4394 25.3248 12.2882C26.3172 10.8195 26.8829 9.05272 26.8829 7.15619C26.8829 5.17695 26.2648 3.33176 25.1916 1.81882C25.1575 1.77176 25.132 1.69904 25.166 1.64485C25.1944 1.60065 25.2469 1.57783 25.2965 1.56642C25.658 1.49227 26.0294 1.45092 26.4179 1.45092ZM8.48273 1.45078C8.87119 1.45078 9.24263 1.49213 9.60557 1.56628C9.65377 1.57769 9.70764 1.60193 9.736 1.64471C9.76861 1.69889 9.7445 1.77162 9.71048 1.81868C8.63726 3.33162 8.01914 5.17681 8.01914 7.15605C8.01914 9.05257 8.58481 10.8193 9.57721 12.2881C9.67929 12.4392 9.58856 12.6431 9.4085 12.6745C9.15899 12.7187 8.9038 12.7415 8.64293 12.7487C6.04142 12.8171 3.70643 11.1331 3.06137 8.59769C2.10441 4.83173 4.91008 1.45078 8.48273 1.45078Z" fill="url(#paint0_linear_1434_853)"/>
<defs>
<linearGradient id="paint0_linear_1434_853" x1="0.0341797" y1="0.333252" x2="24.1351" y2="33.472" gradientUnits="userSpaceOnUse">
<stop stop-color="#F9EC7D"/>
<stop offset="1" stop-color="#F5B100"/>
</linearGradient>
</defs>
</svg>
