<svg width="32" height="31" viewBox="0 0 32 31" fill="none" xmlns="http://www.w3.org/2000/svg">
<path d="M10.1094 0.771973C11.1069 0.80231 12.0727 0.976476 13.0085 1.29473H13.1019C13.1652 1.32481 13.2127 1.35806 13.2444 1.38814C13.5943 1.50056 13.9252 1.62723 14.2419 1.80139L14.8435 2.07056C15.081 2.19723 15.366 2.43314 15.5244 2.52973C15.6827 2.62314 15.8569 2.71973 15.9994 2.82898C17.7585 1.48473 19.8944 0.756393 22.0952 0.771973C23.0943 0.771973 24.0918 0.913143 25.0402 1.23139C30.8843 3.13139 32.9901 9.54389 31.231 15.1489C30.2335 18.0131 28.6027 20.6272 26.4668 22.7631C23.4094 25.724 20.0543 28.3523 16.4427 30.6165L16.0469 30.8556L15.6352 30.6006C12.011 28.3523 8.63688 25.724 5.55096 22.7473C3.42929 20.6114 1.79688 18.0131 0.783542 15.1489C-1.00563 9.54389 1.10021 3.13139 7.00763 1.19814C7.46679 1.03981 7.94021 0.928976 8.41521 0.867226H8.60521C9.05013 0.80231 9.49188 0.771973 9.93521 0.771973H10.1094ZM24.2169 5.77556C23.5677 5.55231 22.8552 5.90223 22.6177 6.56723C22.396 7.23223 22.7444 7.96056 23.4094 8.19648C24.4243 8.57648 25.1035 9.57556 25.1035 10.6823V10.7314C25.0735 11.094 25.1827 11.4439 25.4044 11.7131C25.626 11.9822 25.9585 12.139 26.3069 12.1722C26.956 12.1548 27.5102 11.6339 27.5577 10.9673V10.7789C27.6052 8.56064 26.261 6.55139 24.2169 5.77556Z" fill="url(#paint0_linear_1434_864)"/>
<defs>
<linearGradient id="paint0_linear_1434_864" x1="0.166016" y1="0.771729" x2="30.2103" y2="32.3971" gradientUnits="userSpaceOnUse">
<stop stop-color="#8482FF"/>
<stop offset="1" stop-color="#7723FE"/>
</linearGradient>
</defs>
</svg>
