<svg width="33" height="30" viewBox="0 0 33 30" fill="none" xmlns="http://www.w3.org/2000/svg">
<rect width="33" height="30" fill="#E5E5E5"/>
<g clip-path="url(#clip0_1_3)">
<rect width="1440" height="3976" transform="translate(-810 -960)" fill="white"/>
<rect opacity="0.08" x="-29" y="-30" width="90" height="90" rx="45" fill="url(#paint0_linear_1_3)"/>
<path d="M23.6011 0.630371C29.0619 0.630371 32.2848 3.77264 32.2848 9.15156H25.5856V9.20644C22.4764 9.20644 19.9559 11.6638 19.9559 14.6951C19.9559 17.7264 22.4764 20.1838 25.5856 20.1838H32.2848V20.6778C32.2848 25.9881 29.0619 29.1304 23.6011 29.1304H9.30187C3.84113 29.1304 0.618164 25.9881 0.618164 20.6778V9.08295C0.618164 3.77264 3.84113 0.630371 9.30187 0.630371H23.6011ZM31.1026 11.5117C31.7555 11.5117 32.2848 12.0277 32.2848 12.6643V16.6711C32.2772 17.3045 31.7524 17.8163 31.1026 17.8237H25.7122C24.1382 17.8443 22.7619 16.7936 22.4048 15.2989C22.226 14.371 22.477 13.4135 23.0905 12.683C23.704 11.9526 24.6173 11.5238 25.5856 11.5117H31.1026ZM26.3456 13.3641H25.8248C25.5051 13.3605 25.1972 13.4817 24.9698 13.7008C24.7424 13.92 24.6145 14.2187 24.6145 14.5305C24.6144 15.1845 25.1541 15.7167 25.8248 15.7243H26.3456C27.014 15.7243 27.5559 15.1959 27.5559 14.5442C27.5559 13.8925 27.014 13.3641 26.3456 13.3641ZM17.0567 6.79142H8.11965C7.45663 6.79138 6.91699 7.3114 6.90928 7.95777C6.90928 8.61176 7.44891 9.14404 8.11965 9.15156H17.0567C17.7252 9.15156 18.2671 8.62322 18.2671 7.97149C18.2671 7.31976 17.7252 6.79142 17.0567 6.79142Z" fill="url(#paint1_linear_1_3)"/>
</g>
<defs>
<linearGradient id="paint0_linear_1_3" x1="-29" y1="-30" x2="61" y2="60" gradientUnits="userSpaceOnUse">
<stop stop-color="#8482FF"/>
<stop offset="1" stop-color="#7723FE"/>
</linearGradient>
<linearGradient id="paint1_linear_1_3" x1="0.618164" y1="0.630371" x2="28.9607" y2="32.1221" gradientUnits="userSpaceOnUse">
<stop stop-color="#8482FF"/>
<stop offset="1" stop-color="#7723FE"/>
</linearGradient>
<clipPath id="clip0_1_3">
<rect width="1440" height="3976" fill="white" transform="translate(-810 -960)"/>
</clipPath>
</defs>
</svg>
